<svg id="Layer_1" data-name="Layer 1" xmlns="http://www.w3.org/2000/svg" viewBox="0 0 566.93 566.93"><defs><style>.cls-1{fill:#fff;}</style></defs><title>Logo_NOSTR</title><rect width="566.93" height="566.93"/><path class="cls-1" d="M293.62,280.35a1.88,1.88,0,0,0,2.11.77c10.88-3.27,21.74-6.57,32.63-9.78,15.83-4.67,15.89-4.68,24.73,8.9,2.21,3.4,5.15,6.48,6.11,10.67a1.25,1.25,0,0,1-.91,1.49c-3.2.8-4.83-2.49-7.32-3.11-2.3-.57-4.11-9.81-7.66-.54-.77,2-4-1.13-4.14-2.69-.48-7.51-4.94-6.2-9.56-4.6-13.58,4.7-27.89,7.31-40.77,14-2.7,1.39-5.18,2.19-7.8,0s-3.31-5.25-2.53-8.49a125.77,125.77,0,0,1,5.37-16.16.67.67,0,0,0-.88-.85c-46.34,20-66,65.2-97.17,100.1a.76.76,0,0,1-.87.19c-2.49-1.11-.93-4.18-1.42-6.43-1.22-5.7,7.5-10.49,1.21-17.31-1.19-1.29,4.27-6.77,8.75-7.53,5.81-1,9.21-4.56,12.08-9.22,8.4-13.61,20.43-24.92,25.85-40.45,1-3,4.38-4.23,7.19-5.8a72,72,0,0,0,24.67-21.86,1,1,0,0,0-.55-1.59c-13.47-4.17-26.2-7.9-38.12-14.37-6.33-3.43-15,1.13-22.06,4.21-2.77,1.2-5.38,2.78-8,4.24a1.19,1.19,0,0,1-1.67-.55c-1.52-3.54,0-6.9-.45-10.08a.83.83,0,0,0-.79-.68c-5.17-.26-6.57,8.73-11.07,5.9s-.38-8.17-.07-12.8a1.09,1.09,0,0,0-.8-1.13c-3.23-.87-5.51,2.07-8.32,2.85a1.05,1.05,0,0,1-1.34-1c.26-14.85,15.47-27,31.59-28.15,17.88-1.34,36.28-2.19,52.81-11,12.4-6.6,25-12.79,39.16-15,13.51-2.09,27.37-2.37,39,5.15,9.94,6.43,20.23,8,31.35,8.21,8.53.16,15.26-3.32,18.95-10.89,4.08-8.38,2.79-16.44-4.16-23-4.84-4.57-10.37-8.44-15-13.15-7.14-7.2-10.07-15.88-6.91-25.89,3-9.5,9-12,17.79-6.93,5.2,3,10.35,5.77,16.17,7.43.9.26,4.63-1.25,3.71,3.83-.72,4-1.6,3.87-4.39,4.08-4.87.37-9.7-.4-14.63,1.22-6.89,2.26-5.95,5.64-1.18,10.28a41.93,41.93,0,0,0,6.57,5.15c21.36,13.76,19.56,39.49,5,55.89a67,67,0,0,1-5.12,5.28c-11.16,10.07-16.46,18.28-20.67,32.2-3.95,13-19.07,22.61-39.63,21.91-13.38-.46-18.92,8.11-26.65,14.47a1.73,1.73,0,0,0-.37,2.29Z"/><path class="cls-1" d="M184.37,429.73v.94q0,11,0,21.95c0,1.09.06.94-.93.94H170.8c-.69,0-.69,0-.7-.74,0-.09,0-.18,0-.26q0-22.65,0-45.3c0-1.09-.16-1,1-1,4.24,0,8.49,0,12.73,0a1.26,1.26,0,0,1,1.21.64q7,10.45,14.1,20.86c.14.21.24.47.54.62a2,2,0,0,0,.07-.93q0-10.1,0-20.19c0-1.12-.14-1,1-1h13a.28.28,0,0,1,.31.33c0,.2,0,.41,0,.61q0,22.69,0,45.38v.09c0,.93.05.86-.85.86-3.75,0-7.49,0-11.24,0a1.36,1.36,0,0,1-1.28-.66q-7.8-11.25-15.63-22.47A1.68,1.68,0,0,0,184.37,429.73Z"/><path class="cls-1" d="M396.85,453.55h-1c-5.09,0-10.18,0-15.27,0a1.27,1.27,0,0,1-1.29-.75c-2.46-4.35-5-8.68-7.43-13-.31-.54-.48-.89-1.26-.91-.41,0-.92-.06-1.24.23s-.28,1-.28,1.43c0,4,0,8,0,11.94,0,.2,0,.41,0,.61s-.13.48-.47.45H354.75c-.6,0-.6,0-.62-.65,0-.15,0-.29,0-.44q0-22.56,0-45.12c0-1.23-.16-1.07,1.07-1.07q10.62,0,21.24,0a24.72,24.72,0,0,1,8.6,1.48,14.72,14.72,0,0,1,8.63,7.53,17.17,17.17,0,0,1,1.47,8.81,14.83,14.83,0,0,1-3.32,8.52,15.48,15.48,0,0,1-4.52,3.71l-.77.42Zm-27.77-30.6c0,1.32,0,2.63,0,4,0,.39.06.58.52.57,2,0,4.1,0,6.14,0a5.93,5.93,0,0,0,2.21-.48,3.83,3.83,0,0,0,2.49-3.85,3.93,3.93,0,0,0-2.54-3.93,7.18,7.18,0,0,0-2.66-.51c-1.84,0-3.69,0-5.53,0-.62,0-.63,0-.64.62C369.08,420.49,369.09,421.72,369.09,422.94Z"/><path class="cls-1" d="M241.39,453.54a25.1,25.1,0,0,1-12.23-2.79,21.06,21.06,0,0,1-10.29-11.87,25.24,25.24,0,0,1,.8-19.75c3.16-6.75,8.67-10.8,16.17-12.28a26,26,0,0,1,13.83.92A21,21,0,0,1,262.75,420a25.08,25.08,0,0,1-.58,21.16c-3.1,6.4-8.43,10.26-15.55,11.83A22.91,22.91,0,0,1,241.39,453.54Zm-9-23.59a16.4,16.4,0,0,0,.21,3,11.91,11.91,0,0,0,2,5,8.06,8.06,0,0,0,12.67.25,10.08,10.08,0,0,0,1.51-2.76,17.27,17.27,0,0,0,.62-8.62,11.43,11.43,0,0,0-1.69-4.51A7.93,7.93,0,0,0,239,419a7.79,7.79,0,0,0-5.34,4.53A14.33,14.33,0,0,0,232.41,430Z"/><path class="cls-1" d="M298,422.51a17.3,17.3,0,0,0-8.07-4.09,15.49,15.49,0,0,0-5.83-.28,4.53,4.53,0,0,0-1.64.57,1.9,1.9,0,0,0,.15,3.48,12.62,12.62,0,0,0,3.1.9c2.77.57,5.58,1,8.32,1.69a24.56,24.56,0,0,1,5.77,2.2,10.8,10.8,0,0,1,5.78,7.52,14.38,14.38,0,0,1-7.11,15.81,23,23,0,0,1-9.33,3A38.84,38.84,0,0,1,269,450.14a16.88,16.88,0,0,1-4.4-2.77c-.56-.49-.56-.5-.16-1.09l6.57-9.74c.1-.14.2-.27.3-.4.31,0,.46.27.65.43a21.16,21.16,0,0,0,14.79,5.21,7.89,7.89,0,0,0,2.48-.48,3.37,3.37,0,0,0,1.25-.77,2,2,0,0,0-.47-3.24,8.77,8.77,0,0,0-2.4-.8c-2.48-.55-5-.89-7.5-1.36a24.82,24.82,0,0,1-6.88-2.21,11.17,11.17,0,0,1-6.41-9.41c-.66-7.34,3.43-12.6,9.4-15.24a25.05,25.05,0,0,1,10.32-2,31.73,31.73,0,0,1,12.29,2.39,24.08,24.08,0,0,1,6.1,3.65c.29.24.49.41.18.82-2.3,3.07-4.57,6.16-6.86,9.24A1.24,1.24,0,0,1,298,422.51Z"/><path class="cls-1" d="M328.57,406.28h19.83c1,0,1-.07,1,.94q0,5.31,0,10.61c0,.18,0,.35,0,.53s-.09.44-.4.43-.41,0-.61,0H336.4c-.27,0-.35.13-.35.38s0,.47,0,.7q0,16.32,0,32.63c0,1.18.13,1-1,1h-13.6c-.22,0-.31-.12-.32-.32s0-.53,0-.79q0-16.32,0-32.63c0-1.09.15-1-1-1H308.82c-.2,0-.41,0-.61,0s-.42-.14-.4-.42,0-.29,0-.44q0-5.39,0-10.79c0-.87-.13-.86.84-.86Z"/></svg>